<svg width="21" height="20" viewBox="0 0 21 20" fill="none" xmlns="http://www.w3.org/2000/svg">
<path d="M15.1079 11.936C15.1079 12.776 15.3469 13.111 15.9719 13.111C17.365 13.111 18.2519 11.336 18.2519 8.38399C18.2519 3.87199 14.9639 1.71199 10.8589 1.71199C6.63595 1.71199 2.79495 4.54399 2.79495 9.89599C2.79495 15.008 6.15495 17.792 11.3149 17.792C13.0669 17.792 14.2429 17.6 16.0419 17L16.4279 18.607C14.6519 19.184 12.754 19.351 11.2909 19.351C4.52295 19.351 0.897949 15.631 0.897949 9.89499C0.897949 4.11099 5.09895 0.174988 10.8829 0.174988C16.9069 0.174988 20.0979 3.77499 20.0979 8.19099C20.0979 11.935 18.923 14.791 15.2269 14.791C13.5459 14.791 12.4429 14.119 12.2989 12.63C11.8669 14.286 10.7149 14.791 9.15395 14.791C7.06595 14.791 5.31395 13.182 5.31395 9.94299C5.31395 6.67899 6.85095 4.66299 9.61095 4.66299C11.0749 4.66299 11.9869 5.23899 12.3929 6.15099L13.0899 4.87899H15.1059V11.936H15.1079ZM12.1569 8.76799C12.1569 7.44899 11.1719 6.89599 10.3559 6.89599C9.46795 6.89599 8.48495 7.61499 8.48495 9.72799C8.48495 11.408 9.22895 12.344 10.3559 12.344C11.1479 12.344 12.1569 11.84 12.1569 10.448V8.76799Z" fill="#A7A7A7"/>
</svg>
